<svg xmlns="http://www.w3.org/2000/svg" viewBox="0 0 121.6 44.9"><path d="M2.7 34.8c-.5 0-1.1-.2-1.5-.5-1.1-.8-1.3-2.4-.4-3.5l6.6-8.5-6.6-8.5c-.8-1.1-.7-2.7.4-3.5 1.1-.9 2.7-.7 3.5.4l7.8 10a2.55 2.55 0 0 1 0 3.1l-7.8 10c-.5.7-1.3 1-2 1z" fill="#dd3083"/><path d="M26.2 10.3c-1.1-.8-2.7-.7-3.5.4l-7.8 10a2.55 2.55 0 0 0 0 3.1l7.8 10c.5.6 1.2 1 2 1 .5 0 1.1-.2 1.5-.5 1.1-.8 1.3-2.4.4-3.5L20 22.3l6.6-8.5c.9-1.1.7-2.6-.4-3.5zM19.6 0A22.75 22.75 0 0 0 5.4 5C4.1 6.1 3.9 8 5 9.4c1.1 1.3 3 1.5 4.4.4 2.8-2.3 6.5-3.6 10.2-3.6 8.9 0 16.1 7.2 16.1 16.1s-7.2 16.1-16.1 16.1c-3.8 0-7.4-1.3-10.2-3.6-1.4-1.1-3.3-.9-4.4.4s-.9 3.3.4 4.4c3.9 3.2 9 5 14.2 5 4.5 0 8.7-1.3 12.2-3.6l2.4 2.8c.6.7 1.5 1.1 2.3 1.1.7 0 1.5-.3 2-.8 1.3-1.1 1.4-3.1.3-4.4L36.4 37c3.4-3.9 5.5-9 5.5-14.6C41.9 10 31.9 0 19.6 0zm38.2 11.6a10.5 10.5 0 1 0 0 21c1.4 0 2.7-.3 3.9-.7l.9 1c.5.6 1.2.9 1.9.9.6 0 1.2-.2 1.6-.6 1-.9 1.2-2.5.2-3.5l-.5-.6c1.6-1.8 2.6-4.2 2.6-6.8-.1-6-4.8-10.7-10.6-10.7zm0 16c-3 0-5.5-2.5-5.5-5.5s2.5-5.5 5.5-5.5 5.5 2.5 5.5 5.5a5.29 5.29 0 0 1-.9 3l-.7-.8c-.9-1-2.5-1.2-3.5-.2-1 .9-1.2 2.5-.2 3.5v.1c-.1-.1-.1-.1-.2-.1zm55-16c-2.3 0-4.5 1-6 2.5-1.5-1.5-3.7-2.5-6-2.5-4.7 0-8.5 3.8-8.5 8.5v10c0 1.4 1.1 2.5 2.5 2.5s2.5-1.1 2.5-2.5v-10c0-1.9 1.6-3.5 3.5-3.5s3.5 1.6 3.5 3.5v10c0 1.4 1.1 2.5 2.5 2.5s2.5-1.1 2.5-2.5v-10c0-1.9 1.6-3.5 3.5-3.5s3.5 1.6 3.5 3.5v10c0 1.4 1.1 2.5 2.5 2.5s2.5-1.1 2.5-2.5v-10c0-4.7-3.8-8.5-8.5-8.5zm-24.5.7c-1-.9-2.6-.8-3.5.3l-5 5.8-5-5.8c-.9-1-2.5-1.2-3.5-.3s-1.2 2.5-.3 3.5l5.4 6.3-5.4 6.3c-.9 1-.8 2.6.3 3.5.5.4 1.1.6 1.6.6.7 0 1.4-.3 1.9-.9l5-5.8 5 5.8c.5.6 1.2.9 1.9.9.6 0 1.2-.2 1.6-.6 1-.9 1.2-2.5.3-3.5l-5.4-6.3 5.4-6.3c.9-1 .8-2.6-.3-3.5z" fill="#0d4676"/></svg>